<?xml version="1.0" encoding="UTF-8"?>
<svg id="Layer_2" data-name="Layer 2" xmlns="http://www.w3.org/2000/svg" viewBox="0 0 252.9 252.9">
  <defs>
    <style>
      .cls-1 {
        fill: #fff;
        stroke: #000;
        stroke-miterlimit: 10;
      }
    </style>
  </defs>
  <g id="Layer_1-2" data-name="Layer 1">
    <circle class="cls-1" cx="126.45" cy="126.45" r="120.76"/>
    <g>
      <polygon points="69.94 64.66 162.39 188.24 183.32 188.24 90.88 64.66 69.94 64.66"/>
      <path d="M126.45,0h0C56.61,0,0,56.61,0,126.45h0c0,69.84,56.61,126.45,126.45,126.45h0c69.84,0,126.45-56.61,126.45-126.45h0C252.9,56.61,196.29,0,126.45,0ZM157.45,198.12l-42.09-56.28-52.09,56.28h-13.39l59.5-64.28L50.25,54.78h45.57l38.76,51.83,47.97-51.83h13.39l-55.38,59.83,62.45,83.5h-45.57Z"/>
    </g>
  </g>
</svg>